<svg xmlns="http://www.w3.org/2000/svg" viewBox="430 280 340 340" role="img" aria-label="Halcyon">
  <path transform="matrix(2.538461,0,0,2.538461,434.999984,272.307692)" fill="none" stroke="#c49a38" stroke-width="4.5" stroke-opacity="0.92" stroke-linejoin="miter" stroke-miterlimit="4" d="M 65.000008 9.999645 L 114.999535 40.000593 L 114.999535 99.99941 L 65.000008 130.000358 L 15.00048 99.99941 L 15.00048 40.000593 Z M 65.000008 9.999645 "/>
  <path transform="matrix(2.538461,0,0,2.538461,434.999984,272.307692)" fill="none" stroke="#c49a38" stroke-width="2" stroke-opacity="0.38" stroke-linejoin="miter" stroke-miterlimit="4" d="M 65.000008 21.000711 L 105.000245 45.000238 L 105.000245 94.999765 L 65.000008 118.999292 L 24.99977 94.999765 L 24.99977 45.000238 Z M 65.000008 21.000711 "/>
  <path fill="#c49a38" d="M 628.277344 486.707031 L 628.277344 421.1875 C 628.277344 418.429688 628 416.339844 627.441406 414.917969 C 626.867188 413.496094 625.679688 412.507812 623.886719 411.949219 C 622.074219 411.375 619.324219 411.085938 615.636719 411.085938 C 615.347656 411.085938 615.207031 410.804688 615.207031 410.246094 C 615.207031 409.671875 615.347656 409.382812 615.636719 409.382812 C 617.820312 409.382812 620.308594 409.453125 623.101562 409.585938 C 625.890625 409.738281 628.90625 409.816406 632.136719 409.816406 C 635.167969 409.816406 638.101562 409.738281 640.945312 409.585938 C 643.789062 409.453125 646.300781 409.382812 648.484375 409.382812 C 648.753906 409.382812 648.890625 409.671875 648.890625 410.246094 C 648.890625 410.804688 648.753906 411.085938 648.484375 411.085938 C 644.878906 411.085938 642.15625 411.347656 640.3125 411.871094 C 638.449219 412.398438 637.214844 413.34375 636.605469 414.714844 C 635.996094 416.085938 635.691406 418.152344 635.691406 420.910156 L 635.691406 486.707031 C 635.691406 489.464844 635.996094 491.554688 636.605469 492.976562 C 637.214844 494.398438 638.449219 495.34375 640.3125 495.820312 C 642.15625 496.292969 644.878906 496.53125 648.484375 496.53125 C 648.753906 496.53125 648.890625 496.808594 648.890625 497.367188 C 648.890625 497.941406 648.753906 498.230469 648.484375 498.230469 C 646.300781 498.230469 643.789062 498.179688 640.945312 498.078125 C 638.101562 497.992188 635.167969 497.953125 632.136719 497.953125 C 628.90625 497.953125 625.890625 497.992188 623.101562 498.078125 C 620.308594 498.179688 617.820312 498.230469 615.636719 498.230469 C 615.347656 498.230469 615.207031 497.941406 615.207031 497.367188 C 615.207031 496.808594 615.347656 496.53125 615.636719 496.53125 C 619.324219 496.53125 622.074219 496.292969 623.886719 495.820312 C 625.679688 495.34375 626.867188 494.398438 627.441406 492.976562 C 628 491.554688 628.277344 489.464844 628.277344 486.707031 Z M 631.425781 453.300781 L 567.457031 453.300781 L 567.457031 450.609375 L 631.425781 450.609375 Z M 564.03125 486.707031 L 564.03125 420.910156 C 564.03125 418.152344 563.726562 416.085938 563.117188 414.714844 C 562.488281 413.34375 561.28125 412.398438 559.484375 411.871094 C 557.691406 411.347656 554.992188 411.085938 551.386719 411.085938 C 551.203125 411.085938 551.109375 410.804688 551.109375 410.246094 C 551.109375 409.671875 551.203125 409.382812 551.386719 409.382812 C 553.65625 409.382812 556.1875 409.453125 558.976562 409.585938 C 561.789062 409.738281 564.707031 409.816406 567.734375 409.816406 C 571.054688 409.816406 574.082031 409.738281 576.824219 409.585938 C 579.582031 409.453125 582.042969 409.382812 584.210938 409.382812 C 584.414062 409.382812 584.515625 409.671875 584.515625 410.246094 C 584.515625 410.804688 584.414062 411.085938 584.210938 411.085938 C 580.625 411.085938 577.921875 411.375 576.113281 411.949219 C 574.320312 412.507812 573.109375 413.496094 572.484375 414.917969 C 571.875 416.339844 571.570312 418.429688 571.570312 421.1875 L 571.570312 486.707031 C 571.570312 489.464844 571.855469 491.554688 572.433594 492.976562 C 572.992188 494.398438 574.191406 495.34375 576.035156 495.820312 C 577.898438 496.292969 580.625 496.53125 584.210938 496.53125 C 584.414062 496.53125 584.515625 496.808594 584.515625 497.367188 C 584.515625 497.941406 584.414062 498.230469 584.210938 498.230469 C 581.941406 498.230469 579.457031 498.179688 576.746094 498.078125 C 574.058594 497.992188 571.054688 497.953125 567.734375 497.953125 C 564.707031 497.953125 561.769531 497.992188 558.925781 498.078125 C 556.085938 498.179688 553.519531 498.230469 551.234375 498.230469 C 551.050781 498.230469 550.957031 497.941406 550.957031 497.367188 C 550.957031 496.808594 551.050781 496.53125 551.234375 496.53125 C 554.839844 496.53125 557.566406 496.292969 559.410156 495.820312 C 561.253906 495.34375 562.488281 494.398438 563.117188 492.976562 C 563.726562 491.554688 564.03125 489.464844 564.03125 486.707031 Z M 564.03125 486.707031 "/>
</svg>
